<?xml version="1.0" encoding="UTF-8"?><!-- Generator: Adobe Illustrator 25.0.0, SVG Export Plug-In . SVG Version: 6.00 Build 0) -->
<svg xmlns="http://www.w3.org/2000/svg"
    xmlns:xlink="http://www.w3.org/1999/xlink" version="1.1" id="Layer_1" x="0px" y="0px" viewBox="0 0 78 37" style="enable-background:new 0 0 78 37;" xml:space="preserve">
    <style type="text/css"> .st0{fill-rule:evenodd;clip-rule:evenodd;fill:#FFFFFF;} .st1{fill-rule:evenodd;clip-rule:evenodd;fill:#EC1C24;} .st2{fill-rule:evenodd;clip-rule:evenodd;} .st3{fill-rule:evenodd;clip-rule:evenodd;fill:#FCD0AF;} .st4{fill-rule:evenodd;clip-rule:evenodd;fill:#C30D42;} .st5{fill-rule:evenodd;clip-rule:evenodd;fill:#472F91;} </style>
    <g>
        <path class="st0" d="M3.9,34.4L3.5,34c-0.7-0.8-0.6-1.9-0.1-2.7l0,0l0,0c0.1-0.2,0.3-0.4,0.4-0.5l-0.2-0.5 c-0.2-0.4-0.3-0.8-0.4-1.2c-3.1-2-3.2-5.6-0.5-7.8c-0.2-0.6-0.4-1.3-0.4-1.9l0-0.6c0-0.5,0-1,0.1-1.5c-0.9-0.9-1.4-2.2-1.2-3.5 c0.3-1.5,1.2-2.4,2.4-3C2.7,7.9,5.4,5,9,6.4c1.7-0.9,3.9-0.9,5.3,0.5c0.3,0.3,0.5,0.6,0.7,1c0.7,0.1,1.5,0.5,2,1 c0.5-1.7,1.7-2.4,2.2-2.7c0.6-0.3,1.1-0.4,1.8-0.5c0.8,0,1.4,0.3,1.7,1.2c0.1-0.1,0.1-0.1,0.3-0.2c0.4-0.3,0.8-0.5,1.2-0.7 c0.9-0.3,1.8-0.3,2.6,0.1c0.5-0.7,1.3-1.2,2.2-1.4c0.6-0.1,1-0.2,1.5,0l-0.1-0.8c0-1.2,0.7-1.7,2-1.8c0.1,0,0.3,0,0.4-0.1 c0.9-0.2,2,0.3,2,1.9c0.9,0.1,1.7-0.6,2.7,0.3l-0.1-1.2c0-0.9,0.5-1.4,1.3-1.6c0.5,0,1-0.1,1.6-0.1c0.9,0.1,1.5,0.7,1.5,1.9 c0.6,0,1.1,0.2,1.5,0.5C44,3,45.1,2.8,46,3c1.4,0,2.8,0,4.2,0C50.5,3,50.8,3,51,3c0.4,0,0.8,0.1,1.1,0.2l0.5,0.3 C53.2,3.1,54,3.4,55,3.4c0.7-0.1,1.2-0.1,1.9,0.2c0.2-1.2,1.4-2,2.6-1.8c1.2,0.2,2,1.2,1.9,2.3l1.1,0.1c1-0.1,2,0.3,2.6,1.2 c1.5-0.7,3.4-0.2,4.3,1.2c1.6-0.6,3,0.2,4,1.2c0.6,0,1.4,0.2,1.9,0.5c0.5,0.3,0.9,0.7,1.3,1.2c0.5,0.9,0.3,1.6-0.5,2.2 c0,1.9-1.4,2.9-3.4,2.8C75,16,77.2,18,77.2,21c0,4.4-5.4,6.9-8.9,8.1C61.8,31.4,53.8,32,47,32c-6.8,0-14.8-0.6-21.3-2.9 c-2.1-0.7-4.9-1.9-6.8-3.7c-0.1,0.1-0.1,0.2-0.2,0.3c-0.2,0.3-0.4,0.5-0.7,0.7c0,0.1,0,0.2,0,0.3l0.1,0.1l-0.1,0 c-0.3,1.7-1.1,3-2.7,3.6l-0.1,0.7l-0.8,0.3c-0.1,0-0.2,0.1-0.3,0.1c0.4,0.4,0.7,0.9,0.9,1.5l0,0.1l0,0.1c0.6,2.3-1.9,3.8-3.8,2.6 l-0.1-0.1l-0.1-0.1c-0.6-0.5-1.2-0.8-1.8-1.3c-0.1,0-0.2,0.1-0.3,0.1l0,0l0,0c-1.3,0.2-2.7,0.1-4.1,0.2C4.6,34.7,4.2,34.6,3.9,34.4 z"></path>
        <g>
            <path class="st1" d="M21.8,9.1c-0.4-0.2-0.9-0.2-1.3,0c-0.7,0.4-0.9,1.2-0.6,1.9c0.4,0.7,1.1,1,1.8,0.6c0.4-0.2,0.7-0.6,0.8-1 l0.7,1.5c-0.3,0.3-0.6,0.6-0.9,0.7c-0.6,0.3-1.4,0.4-2,0.2c-0.7-0.2-1.2-0.7-1.6-1.4c-0.3-0.6-0.4-1.4-0.2-2.1 c0.2-0.7,0.7-1.3,1.4-1.6c0.4-0.2,0.8-0.3,1.2-0.3L21.8,9.1z"></path>
            <path class="st1" d="M24.7,7.8c-1.1,0.3-1.8,1.3-1.4,2.5c0.4,1.2,1.5,1.5,2.5,1.1c1.1-0.3,1.8-1.3,1.4-2.5 C26.9,7.8,25.7,7.5,24.7,7.8L24.7,7.8z M25,8.9c0.5-0.2,0.9,0.1,1,0.5c0.1,0.4,0,0.8-0.5,1c-0.5,0.2-0.8-0.1-1-0.5 C24.4,9.5,24.5,9,25,8.9z"></path>
            <path class="st1" d="M29.4,6.5c-1.1,0.2-1.9,1.1-1.6,2.3c0.2,1.2,1.3,1.6,2.4,1.4C31.2,10,32,9.1,31.8,8 C31.5,6.8,30.5,6.3,29.4,6.5L29.4,6.5z M29.6,7.6c0.5-0.1,0.8,0.2,0.9,0.6c0.1,0.4-0.1,0.8-0.6,0.9C29.4,9.3,29.1,9,29,8.6 C28.9,8.1,29.1,7.7,29.6,7.6z"></path>
            <polygon class="st1" points="33.7,7.2 34.8,5.7 36.5,5.5 35,7.3 37,9 35.3,9.2 33.8,8 34,9.4 32.8,9.6 32,3.9 33.3,3.7 "></polygon>
            <path class="st1" d="M40.4,3l0.1,2.6l0,0C40.8,5.2,41.1,5,41.6,5c0.9-0.1,1.3,0.5,1.4,1.4l0.1,2.2l-1.2,0.1l-0.1-1.8 c0-0.4-0.1-0.8-0.6-0.8c-0.5,0-0.6,0.5-0.6,0.9l0.1,1.8l-1.2,0.1L39.1,3L40.4,3z"></path>
            <path class="st1" d="M47.8,4.9l-1.2,0l0,0.3c-0.3-0.3-0.7-0.5-1.1-0.5c-1,0-1.7,0.9-1.7,1.9c0,1,0.7,1.9,1.8,1.9 c0.4,0,0.8-0.2,1-0.5h0l0,0.4l1.2,0L47.8,4.9L47.8,4.9z M45.8,5.9c0.5,0,0.8,0.4,0.8,0.8c0,0.4-0.3,0.8-0.8,0.8 c-0.5,0-0.8-0.3-0.8-0.8C45,6.3,45.3,5.9,45.8,5.9z"></path>
            <path class="st1" d="M50.1,5l-1.2,0l-0.2,5.3l1.2,0l0.1-2.1c0.3,0.3,0.7,0.5,1.1,0.5c1,0,1.8-0.8,1.8-1.8c0-1-0.6-1.9-1.7-2 c-0.4,0-0.8,0.1-1.1,0.5l0,0L50.1,5L50.1,5z M50.8,6c0.5,0,0.8,0.4,0.8,0.8c0,0.4-0.3,0.8-0.8,0.8c-0.5,0-0.8-0.4-0.8-0.8 C50,6.3,50.3,6,50.8,6z"></path>
            <path class="st1" d="M54.9,5.3l-1.2-0.1l-0.4,5.3l1.2,0.1l0.2-2.1c0.2,0.3,0.6,0.5,1,0.5c1,0.1,1.8-0.7,1.9-1.7c0.1-1-0.6-2-1.6-2 c-0.4,0-0.8,0.1-1.1,0.4l0,0L54.9,5.3L54.9,5.3z M55.5,6.3c0.5,0,0.8,0.4,0.7,0.9c0,0.4-0.4,0.8-0.8,0.7c-0.5,0-0.8-0.4-0.7-0.9 C54.7,6.6,55,6.2,55.5,6.3z"></path>
            <path class="st1" d="M60,4.5c0,0.4-0.4,0.7-0.8,0.6c-0.4,0-0.6-0.4-0.6-0.8c0-0.4,0.4-0.7,0.8-0.6C59.8,3.7,60.1,4.1,60,4.5 L60,4.5z M59.4,9.3l-1.2-0.2l0.4-3.5l1.2,0.2L59.4,9.3z"></path>
            <path class="st1" d="M62,6.6L62,6.6c0.4-0.4,0.7-0.4,1.2-0.4c0.9,0.2,1.2,0.8,1,1.7l-0.4,2.2l-1.2-0.2l0.3-1.7 c0.1-0.3,0.2-0.9-0.4-1c-0.5-0.1-0.7,0.3-0.8,0.7l-0.3,1.8l-1.2-0.2l0.6-3.5l1.2,0.2L62,6.6z"></path>
            <path class="st1" d="M68.6,9.6c0.3-1.2-0.2-2.1-1.3-2.4c-1.1-0.3-2,0.2-2.3,1.3c-0.3,1.2,0.3,2.1,1.5,2.4c0.8,0.2,1.6,0,2-0.7 l-1.1-0.3c-0.2,0.2-0.4,0.2-0.6,0.2c-0.5-0.1-0.7-0.5-0.5-1l2.5,0.7L68.6,9.6L68.6,9.6z M66.3,8.4C66.4,8,66.8,7.9,67.1,8 c0.3,0.1,0.6,0.4,0.5,0.7L66.3,8.4z"></path>
            <path class="st1" d="M71.7,9.8c-0.1-0.2-0.4-0.3-0.6-0.4c-0.1-0.1-0.4-0.1-0.4,0.1C70.7,9.7,71,9.9,71.1,10 c0.5,0.3,0.8,0.7,0.6,1.3c-0.3,0.9-1.2,0.9-2,0.6c-0.5-0.2-0.9-0.5-1.2-0.9l0.7-0.7c0.2,0.3,0.5,0.6,0.8,0.7 c0.1,0.1,0.4,0.1,0.4-0.1c0.1-0.3-0.3-0.4-0.6-0.6c-0.3-0.2-0.6-0.6-0.4-1.2c0.3-0.8,1.1-0.9,1.9-0.6c0.4,0.1,0.7,0.3,1,0.6 L71.7,9.8z"></path>
            <path class="st1" d="M74.9,11.4c-0.1-0.2-0.3-0.4-0.5-0.5c-0.1-0.1-0.4-0.1-0.4,0c-0.1,0.2,0.2,0.4,0.3,0.5 c0.5,0.4,0.7,0.8,0.4,1.4c-0.4,0.8-1.3,0.8-2,0.4c-0.4-0.2-0.8-0.6-1-1l0.8-0.6c0.1,0.3,0.4,0.6,0.7,0.8c0.1,0.1,0.4,0.1,0.5-0.1 c0.1-0.2-0.2-0.4-0.5-0.7c-0.3-0.3-0.5-0.6-0.3-1.2c0.4-0.8,1.2-0.8,1.9-0.4c0.3,0.2,0.7,0.4,0.9,0.7L74.9,11.4z"></path>
        </g>
        <g>
            <path class="st1" d="M75.6,21c0,5.3-11.3,9.5-28.6,9.5c-17.3,0-28.6-4.3-28.6-9.5c0-5.3,11.3-9.5,28.6-9.5 C64.3,11.4,75.6,15.7,75.6,21z"></path>
            <path class="st0" d="M26.3,17.8L26.3,17.8C26.3,17.8,26.3,17.8,26.3,17.8z"></path>
            <path class="st0" d="M26.3,17.8"></path>
            <path class="st0" d="M25,18.3"></path>
            <path class="st0" d="M25.5,21.3c-0.3,0-0.6,0-0.9,0c0.3-0.7,0.5-1.4,0.8-2.1c0.3,0.7,0.6,1.4,0.8,2.1C26,21.3,25.8,21.3,25.5,21.3 L25.5,21.3z M29.2,23.5c-0.1-0.1-0.2-0.2-0.2-0.3c-0.7-2.3-1.5-4-2-4.9c-0.1-0.3-0.4-0.5-0.7-0.5c-0.1,0-0.1,0-0.2,0 c-0.1,0-0.2,0-0.3,0l0,0c-0.3,0-0.6,0.2-0.7,0.5c-0.8,1.6-1.4,3.2-1.9,4.9c0,0.1-0.1,0.3-0.3,0.3c-0.1,0.1-0.2,0.2-0.2,0.3 c0,0.2,0.2,0.3,0.3,0.3c0.2,0,0.4,0,0.6,0c0.2,0,0.4,0,0.6,0c0.2,0,0.3-0.2,0.3-0.3c0-0.2-0.1-0.3-0.2-0.3 c-0.1-0.1-0.2-0.2-0.2-0.4c0,0,0-0.1,0-0.1c0.1-0.3,0.2-0.6,0.3-0.8c0.4,0,0.8,0,1.2,0c0.4,0,0.7,0,1.1,0c0.1,0.3,0.2,0.6,0.3,0.9 c0,0,0,0.1,0,0.1c0,0.1-0.1,0.3-0.2,0.3c-0.1,0.1-0.2,0.2-0.2,0.3c0,0.2,0.2,0.3,0.3,0.3c0.4,0,0.8,0,1.2,0c0.4,0,0.7,0,1.1,0 c0.2,0,0.3-0.2,0.3-0.3C29.4,23.7,29.3,23.6,29.2,23.5z"></path>
            <path class="st0" d="M35,22.3c-0.1,0-0.2,0.1-0.3,0.1c-0.2,0.2-0.3,0.4-0.5,0.5c-0.3,0.2-0.7,0.4-1.1,0.4c-0.5,0-1-0.3-1.3-0.7 c-0.3-0.4-0.5-1.1-0.5-1.8c0-0.8,0.2-1.5,0.6-2c0.3-0.3,0.7-0.5,1.1-0.5c0.7,0,1.2,0.5,1.4,1.1c0.1,0.2,0.2,0.3,0.3,0.4 c0,0,0.1,0,0.1,0c0.2,0,0.4-0.2,0.5-0.4c0,0,0-0.1,0-0.1c0-0.1,0-0.2,0-0.4c0-0.1,0-0.2,0-0.2c0-0.2-0.2-0.4-0.4-0.5 c-0.6-0.4-1.3-0.6-2.1-0.6c-1,0-1.9,0.4-2.6,1c-0.6,0.6-1,1.4-1,2.3c0,1.7,1.3,3,2.9,3.2c0.2,0,0.4,0,0.6,0c0.2,0,0.3,0,0.5,0 c0.8-0.1,1.6-0.4,2-1c0.1-0.1,0.2-0.3,0.2-0.4c0,0,0-0.1,0-0.2C35.4,22.5,35.2,22.3,35,22.3z"></path>
            <path class="st0" d="M53.6,23.1c-0.2,0.3-0.5,0.4-0.9,0.4c-0.3,0-0.7-0.2-0.9-0.4c-0.3-0.4-0.5-1.2-0.5-2.1c0-1,0.2-1.8,0.6-2.2v0 c0.2-0.2,0.5-0.4,0.8-0.4c0.3,0,0.6,0.1,0.8,0.4l0,0c0.3,0.4,0.6,1.2,0.6,2.2C54.1,21.9,53.9,22.7,53.6,23.1L53.6,23.1z M52.7,17.7c-2,0-3.7,1.5-3.7,3.3c0,1.8,1.6,3.3,3.7,3.3c2,0,3.7-1.5,3.7-3.3C56.4,19.2,54.7,17.7,52.7,17.7z"></path>
            <path class="st0" d="M61.3,23.1c-0.2,0.3-0.5,0.4-0.9,0.4c-0.3,0-0.7-0.2-0.9-0.4c-0.3-0.4-0.5-1.2-0.5-2.1c0-1,0.2-1.8,0.6-2.2v0 c0.2-0.2,0.5-0.4,0.8-0.4c0.3,0,0.6,0.1,0.8,0.4l0,0c0.3,0.4,0.6,1.2,0.6,2.2C61.9,21.9,61.6,22.7,61.3,23.1L61.3,23.1z M60.5,17.7c-2,0-3.7,1.5-3.7,3.3c0,1.8,1.6,3.3,3.7,3.3c2,0,3.7-1.5,3.7-3.3C64.1,19.2,62.5,17.7,60.5,17.7z"></path>
            <path class="st0" d="M37.8,20.9c0-0.4,0.1-0.9,0.2-1.2c0.2-0.4,0.5-0.8,0.9-1c0.1-0.1,0.3-0.1,0.4-0.1c0.5,0,0.9,0.4,0.9,1 c0,0.3-0.2,0.6-0.4,0.8c-0.5,0.3-1.1,0.6-1.8,0.6C38,21,37.9,21,37.8,20.9C37.8,20.9,37.8,20.9,37.8,20.9L37.8,20.9z M41.6,22.3 c-0.1,0-0.2,0.1-0.3,0.1c-0.2,0.2-0.3,0.4-0.5,0.5c-0.3,0.2-0.7,0.4-1.1,0.4c-0.5,0-1-0.3-1.3-0.7c-0.2-0.2-0.3-0.5-0.4-0.8 c0.2,0,0.3,0,0.5,0c0.2,0,0.5,0,0.7,0c1.1-0.1,2-0.4,2.4-0.8c0.3-0.3,0.5-0.8,0.5-1.3c0-0.8-0.5-1.5-1.2-1.8 c-0.4-0.2-0.9-0.2-1.4-0.2c-1,0-1.9,0.4-2.6,1c-0.6,0.6-1,1.4-1,2.3c0,1.7,1.3,3,2.9,3.2c0.2,0,0.4,0,0.6,0c0.2,0,0.3,0,0.5,0 c0.8,0,1.6-0.4,2-1c0.1-0.1,0.1-0.2,0.2-0.4c0,0,0-0.1,0-0.1C42,22.5,41.8,22.3,41.6,22.3z"></path>
            <path class="st0" d="M71.2,23.5c-0.1-0.1-0.2-0.2-0.3-0.3c-0.6-1-1.3-2-1.9-2.9c0.4-0.4,0.8-0.8,1.1-1.2c0.2-0.2,0.4-0.4,0.7-0.6 c0.1-0.1,0.2-0.2,0.2-0.3c0-0.1-0.1-0.2-0.2-0.3c-0.1,0-0.1-0.1-0.2-0.1h-1.3c-0.1,0-0.1,0-0.2,0c-0.1,0.1-0.2,0.2-0.2,0.3 c0,0.1,0.1,0.3,0.2,0.3c0.1,0,0.1,0.1,0.1,0.2c0,0,0,0.1,0,0.1c-0.6,0.7-1.3,1.3-2.1,1.8v-1.7c0-0.1,0.1-0.3,0.2-0.3 c0.1-0.1,0.2-0.2,0.2-0.3c0-0.1-0.1-0.3-0.2-0.3c-0.1,0-0.1,0-0.2,0h-2.3c-0.1,0-0.1,0-0.2,0c-0.1,0.1-0.2,0.2-0.2,0.3 c0,0.1,0.1,0.3,0.2,0.3c0.1,0.1,0.2,0.2,0.2,0.3v4.3c0,0.2-0.1,0.3-0.3,0.4c-0.1,0-0.2,0.2-0.2,0.3c0,0.1,0.1,0.2,0.2,0.3 c0.1,0,0.2,0.1,0.3,0.1h2.3c0.1,0,0.2,0,0.3-0.1c0.1-0.1,0.2-0.2,0.2-0.3c0-0.2-0.1-0.3-0.2-0.3c-0.1-0.1-0.2-0.2-0.2-0.4v-1.6 c0.1-0.1,0.2-0.1,0.4-0.2c0.4,0.6,0.9,1.2,1.2,1.9c0,0,0,0,0,0.1c0,0.1-0.1,0.1-0.1,0.1l0,0c-0.2,0-0.3,0.2-0.3,0.3 c0,0.1,0.1,0.2,0.2,0.3l0,0c0.1,0,0.2,0.1,0.3,0.1h2.2c0.1,0,0.2,0,0.3-0.1c0.1-0.1,0.2-0.2,0.2-0.3 C71.4,23.6,71.3,23.5,71.2,23.5z"></path>
            <path class="st0" d="M48.3,22.3c-0.1,0-0.2,0.1-0.3,0.1c-0.2,0.2-0.3,0.4-0.5,0.5c-0.3,0.2-0.7,0.4-1.1,0.4c-0.5,0-1-0.3-1.3-0.7 c-0.3-0.4-0.5-1.1-0.5-1.8c0-0.8,0.2-1.5,0.6-2c0.3-0.3,0.7-0.5,1.1-0.5c0.7,0,1.2,0.5,1.4,1.1c0,0.2,0.2,0.3,0.3,0.4 c0,0,0.1,0,0.1,0c0.2,0,0.4-0.2,0.5-0.4c0,0,0-0.1,0-0.1c0-0.1,0-0.2,0-0.4c0-0.1,0-0.2,0-0.2c0-0.2-0.2-0.4-0.4-0.5 c-0.6-0.4-1.3-0.6-2.1-0.6c-1,0-1.9,0.4-2.6,1c-0.6,0.6-1,1.4-1,2.3c0,1.7,1.3,3,2.9,3.2c0.2,0,0.4,0,0.6,0c0.2,0,0.3,0,0.4,0 c0.8-0.1,1.6-0.4,2-1c0.1-0.1,0.2-0.3,0.2-0.4c0,0,0-0.1,0-0.2C48.7,22.5,48.5,22.3,48.3,22.3z"></path>
        </g>
        <g>
            <path class="st2" d="M4.6,21.8c-0.9-1.4-1.1-3.3-0.7-5.2c-2.5-1.5-1.4-5.1,2-4.7C3.5,9.6,5.6,6.1,9.2,8.1c1.6-1.5,4.5-1,4.6,1.2 c2.4,0,3.6,1.3,2.5,3.3c1.5,1.3,1.4,3.1-0.2,4.1c-0.1,1.1-0.5,1.9-1.8,2.1c-0.1,1-0.5,2.1-1.1,2.9c0,0.1,0.1,0.1,0.1,0.2 c0.7-0.8,1-1.9,1.7-2.7c0.8-0.9,1.8-0.4,1.9,0.4c0.1,0.7,0,1.6-0.3,2.2c0.4,0.1,0.6,0.6,0.3,1.1c0.5,0.2,0.6,0.5,0.4,0.9 c0.5,0.2,0.8,0.8,0.4,1.2c-0.2,0.3-0.5,0.6-0.9,0.7c0,1.9-0.6,3.4-2.7,3.7c0,0.3-0.1,0.5-0.1,0.8c-0.5,0.2-0.8,0.2-1.1,0.3 c-0.1,0.5-0.2,1-0.4,1.5c0.6,0.6,1,1.1,1.3,1.7c0.3,1.1-0.9,1.4-1.6,1c-0.7-0.6-1.5-0.9-2-1.6c-0.1-0.2,0-0.6,0-0.8 c-0.2,0-0.2,0-0.4-0.1l-0.3-1.3c-0.1,0-0.3,0-0.4,0L9,31.5c0.2,0.4,0.2,1.4-0.1,1.4c-1,0.1-2.9,0.1-4,0.2c-0.5,0-0.5-0.6-0.2-1 C5,31.7,5.4,31.5,6,31.2c-0.1-0.3-0.2-0.8-0.2-1.1C5.5,30,5.3,29.9,5,29.8c-0.2-0.5-0.4-1.2-0.6-1.6C1.5,26.5,1.6,23.5,4.6,21.8z"></path>
            <path class="st3" d="M5.3,16.9c-2.8-1.4-1-5.5,1.9-4c1,0.6,1.9,1,2.6,1.4c-2.4-0.2-2.6,2.9-0.1,2.8c-1.1-0.9-1.1-2,0.2-2.7 c1.5,0.8,2.6,1.2,3.9,1.1c1.6,0.7,1.1,2.5-0.7,2.6c0.1,0.1,0.3,0.2,0.4,0.3c-0.1,2.7-1.7,4.3-4.8,4.2C6,22.7,3.7,20.5,4.9,17 C5,17,5.1,17,5.3,16.9z"></path>
            <path class="st0" d="M4.7,24.3c-0.3,1-0.4,2-0.3,3c-1.1-0.9-1.5-2.6,0.2-3.9C5,24.1,5.7,24.8,6.9,25c0-0.5,0.1-0.9,0.5-1.4 c-0.4-0.2-0.6-0.4-0.8-0.6c1.4,0.8,3.4,0.7,4.8,0.1c-0.5,0.3-0.7,0.5-1.7,0.8c-0.3,0.5-0.2,1,0.1,1.5c0.6,0.1,1.2,0.1,1.8-0.2 c-0.3,1.8-0.1,3.2,1.5,3.9c0,0.2-0.1,0.3-0.1,0.5c-2.2,0.6-4.6,0.5-7.2-0.4C5.1,27.5,4.8,25.9,4.7,24.3z"></path>
            <path class="st0" d="M11.9,12.2c-1.3-1.3-3.4-1.2-5.3-0.6C4.8,9,7.7,7.7,9.4,9.4c1.3-1.9,3.9-1.2,3.9,1.1c1.8-1,3.4,1.3,1.7,2.4 c1.1,0.7,1.7,1.5,0.9,2.8c-0.3-0.4-0.7-0.8-1.4-0.9c-0.2-0.7-0.6-1.2-1.2-1.6c0.2,0.4,0.3,0.7,0.2,1.1c-1.5,0.2-3.2-0.2-5-1.4 C9,11.9,10.3,12,11.9,12.2z"></path>
            <path class="st2" d="M6.9,16.6c-2.8-0.2-2.1-4,0.8-3C6.3,14,5.8,15.2,6.9,16.6z"></path>
            <path class="st2" d="M9.2,19.2c-0.3-1.5,1.8-2.2,2-0.5C10.4,18.5,9.9,18.6,9.2,19.2z"></path>
            <path class="st2" d="M6.7,18.3c0.1,0.8-0.1,1.3-0.5,1.3c-0.3,0-0.5-0.6-0.5-1.3c0-0.7,0.2-1.2,0.6-1.2C6.7,17.1,6.9,17.4,6.7,18.3 z"></path>
            <path class="st2" d="M7,20.5c0.5,0.6,1.4,0.9,2.4,0.1C9.4,20.2,9.5,20,10,20.3c0.3,0.2,0.3,0.5,0.1,0.8C10,21,9.9,20.9,9.8,20.7 C8.9,22.2,6.9,21.7,7,20.5z"></path>
            <path class="st3" d="M14.8,25.7c-0.2-0.2-0.3-0.3-0.3-0.6c-0.4-0.1-0.7-0.3-0.7-0.8c-0.3,0.1-0.6,0-0.7-0.2 c1.1-0.4,0.7-1.4,0.2-1.4c-1-0.1-1.3,0.8-0.7,1.3c-0.4,0.2-0.6,0.5-0.4,0.8C12.8,25.7,13.8,25.8,14.8,25.7z"></path>
            <path class="st3" d="M15.1,25.1c-0.1-0.2,0.3-0.7,0.6-0.8c0.4-0.2,0.9-0.3,1.2,0c0.2,0.3-0.1,0.7-0.5,0.9 C16,25.3,15.2,25.4,15.1,25.1z"></path>
            <path class="st3" d="M14.4,24.3c-0.1-0.2,0.2-0.6,0.5-0.8c0.3-0.2,0.9-0.4,1.2-0.2c0.3,0.2-0.1,0.6-0.4,0.8 C15.3,24.3,14.5,24.5,14.4,24.3z"></path>
            <path class="st3" d="M14.6,23c-0.1-0.2,0.2-0.6,0.5-0.7c0.3-0.2,0.7-0.3,0.9,0c0.2,0.3-0.1,0.6-0.4,0.8 C15.3,23.2,14.7,23.3,14.6,23z"></path>
            <path class="st3" d="M14.3,22.6c-0.2-0.1-0.4-0.2-0.6-0.3c0.5-0.8,0.9-1.6,1.5-2.3c0.3-0.3,0.8-0.2,0.8,0.2c0,0.6-0.2,1.1-0.5,1.6 C15,21.9,14.6,22.2,14.3,22.6z"></path>
            <path class="st4" d="M4.7,23.2c0.3-0.3,0.6-0.6,0.9-0.9c0.3,0.5,0.7,1,1.4,1.4c-0.2,0.4-0.4,0.7-0.3,1C5.8,24.4,5.2,23.9,4.7,23.2 z"></path>
            <path class="st4" d="M11.7,23.1c-0.1,0.4-0.1,0.7,0.1,1c-0.2,0.2-0.3,0.4-0.2,0.8c-0.5,0.2-1,0.3-1.5,0.3c-0.5,0.1-0.5-0.9-0.1-1 C10.6,23.8,11.2,23.5,11.7,23.1z"></path>
            <path class="st0" d="M12.1,25.9c0.9,0.7,2.7,0.7,3.7,0c0.1,1.6-0.9,2.6-2,2.6C12.6,28.5,11.9,27.1,12.1,25.9z"></path>
            <path class="st0" d="M10.3,30.7c0.5,0.1,1.1,0,1.6-0.1c0,0.2-0.1,0.5-0.1,0.7c-0.5,0.1-0.9,0.1-1.4,0.1 C10.4,31.2,10.3,31,10.3,30.7z"></path>
            <path class="st5" d="M6.2,31.5c0.5,0.2,1.3,0.4,2.5,0.3c0.1,0.2,0.1,0.8,0,0.9c-1.2,0.1-2.5,0.1-3.8,0.2 C4.8,32.3,5.1,31.8,6.2,31.5z"></path>
            <path class="st5" d="M10.5,32.2c0.5,0,1.1,0,1.7-0.1c0.5,0.5,1,1,1.3,1.6c0.3,0.5-0.5,1-1.2,0.6c-0.6-0.5-1.3-0.9-1.8-1.5 C10.3,32.6,10.5,32.4,10.5,32.2z"></path>
            <path class="st2" d="M7.6,23.8l1.6,0.1C9,24.2,9,25.1,9.3,25.4l-1.6,0C6.8,25.4,7.3,23.9,7.6,23.8z"></path>
            <path class="st4" d="M7.8,24l1.1,0.1c-0.1,0.2-0.1,0.9,0.1,1.1l-1.1,0C7.2,25.1,7.6,24.1,7.8,24z"></path>
            <path class="st2" d="M7.5,25.6c0.7,0.2,1.3,0.2,1.9,0c1,1.6,0.4,2.8-0.8,3.9C7.3,28.5,6.5,27.3,7.5,25.6z"></path>
            <path class="st4" d="M7.7,26c0.6,0.1,1.1,0.2,1.5,0.1c0.8,1.2,0.3,2.2-0.6,3.1C7.5,28.4,6.9,27.4,7.7,26z"></path>
            <path class="st2" d="M12.2,12.3c0.5,0,0.7,0.3,0.7,0.6C12.7,12.8,12.4,12.5,12.2,12.3z"></path>
            <path class="st0" d="M8.4,30.6c-0.6,0-1.2-0.2-1.8-0.3c0,0.2,0.1,0.5,0.1,0.7c0.5,0.2,1.1,0.3,1.7,0.2L8.4,30.6z"></path>
        </g>
    </g>
</svg> 